<svg viewBox="0 0 1024 768" xmlns="http://www.w3.org/2000/svg" preserveAspectRatio="xMidYMid meet">
  <!-- Top green curved leaf -->
  <path d="M 80 200 Q 250 50, 500 100 Q 750 150, 900 280 Q 950 180, 1000 80 Q 950 180, 900 280 Q 750 80, 500 50 Q 250 20, 80 200 Z" fill="#6BC34A"/>
  
  <!-- Navy blue rounded rectangle -->
  <rect x="150" y="300" width="724" height="180" rx="40" ry="40" fill="#1A237E"/>
  
  <!-- UCAL Text with better styling -->
  <text x="512" y="415" font-family="Arial, Helvetica, sans-serif" font-size="140" font-weight="900" fill="white" text-anchor="middle" dominant-baseline="central" letter-spacing="12">UCAL</text>
  
  <!-- Bottom green curved leaf -->
  <path d="M 80 568 Q 250 718, 500 668 Q 750 618, 900 488 Q 950 588, 1000 688 Q 950 588, 900 488 Q 750 688, 500 718 Q 250 748, 80 568 Z" fill="#6BC34A"/>
</svg>
